<svg width="42" height="22" viewBox="0 0 42 22" fill="none" xmlns="http://www.w3.org/2000/svg">
<path d="M8.36 5.28C9.592 5.28 10.6871 5.544 11.6453 6.072C12.6231 6.6 13.3858 7.38222 13.9333 8.41867C14.5004 9.45511 14.784 10.7067 14.784 12.1733V21.7067H11.4693V12.672C11.4693 11.2249 11.1076 10.12 10.384 9.35733C9.66045 8.57511 8.67289 8.184 7.42133 8.184C6.16978 8.184 5.17244 8.57511 4.42933 9.35733C3.70578 10.12 3.344 11.2249 3.344 12.672V21.7067H0V0H3.344V7.42133C3.91111 6.73689 4.62489 6.20889 5.48533 5.83733C6.36533 5.46578 7.32356 5.28 8.36 5.28Z" fill="#43403B"/>
<path d="M27.4095 5.28C28.6415 5.28 29.7366 5.544 30.6948 6.072C31.6726 6.6 32.4353 7.38222 32.9828 8.41867C33.5499 9.45511 33.8335 10.7067 33.8335 12.1733V21.7067H30.5188V12.672C30.5188 11.2249 30.157 10.12 29.4335 9.35733C28.7099 8.57511 27.7224 8.184 26.4708 8.184C25.2193 8.184 24.2219 8.57511 23.4788 9.35733C22.7553 10.12 22.3935 11.2249 22.3935 12.672V21.7067H19.0495V0H22.3935V7.42133C22.9606 6.73689 23.6744 6.20889 24.5348 5.83733C25.4148 5.46578 26.373 5.28 27.4095 5.28Z" fill="#43403B"/>
<path d="M39.4483 21.912C38.8421 21.912 38.3336 21.7067 37.923 21.296C37.5123 20.8853 37.307 20.3769 37.307 19.7707C37.307 19.1644 37.5123 18.656 37.923 18.2453C38.3336 17.8347 38.8421 17.6293 39.4483 17.6293C40.035 17.6293 40.5336 17.8347 40.9443 18.2453C41.355 18.656 41.5603 19.1644 41.5603 19.7707C41.5603 20.3769 41.355 20.8853 40.9443 21.296C40.5336 21.7067 40.035 21.912 39.4483 21.912Z" fill="#12B379"/>
</svg>
